/* XPM */
static char * church_xpm[] = {
"20 20 2 1",
" 	c None",
".	c black",
"                    ",
"         ..         ",
"         ..         ",
"         ..         ",
"      ........      ",
"      ........      ",
"         ..         ",
"         ..         ",
"         ..         ",
"        ....        ",
"       ......       ",
"      ........      ",
"     ..........     ",
"     ..........     ",
"     ..........     ",
"     ..........     ",
"      ........      ",
"       ......       ",
"        ....        ",
"                    "};
